<svg viewBox="0 0 113.39 113.39" xmlns="http://www.w3.org/2000/svg"><circle cx="56.69" cy="56.69" fill="#fff" r="56.69"/><g fill="#ff6a00"><path d="m45.85 54.14h21.69v4.89h-21.69z"/><path d="m78.4 36.4h-14.35l3.47 4.9 10.48 3.2a4.54 4.54 0 0 1 3.16 4.35v15.68a4.52 4.52 0 0 1 -3.16 4.35l-10.48 3.21-3.47 4.91h14.35a10.84 10.84 0 0 0 10.84-10.85v-18.91a10.84 10.84 0 0 0 -10.84-10.84z"/><path d="m35 36.4h14.33l-3.46 4.9-10.46 3.2a4.52 4.52 0 0 0 -3.16 4.35v15.68a4.51 4.51 0 0 0 3.16 4.34l10.46 3.21 3.46 4.92h-14.33a10.84 10.84 0 0 1 -10.86-10.85v-18.91a10.84 10.84 0 0 1 10.86-10.84z"/></g></svg>