<?xml version="1.0" standalone="no"?>
<!DOCTYPE svg PUBLIC "-//W3C//DTD SVG 20010904//EN"
 "http://www.w3.org/TR/2001/REC-SVG-20010904/DTD/svg10.dtd">
<svg version="1.0" xmlns="http://www.w3.org/2000/svg"
 width="512.000000pt" height="512.000000pt" viewBox="0 0 512.000000 512.000000"
 preserveAspectRatio="xMidYMid meet">
<metadata>
Created by potrace 1.16, written by Peter Selinger 2001-2019
</metadata>
<g transform="translate(0.000000,512.000000) scale(0.100000,-0.100000)"
fill="#000000" stroke="none">
<path d="M2543 4710 c-18 -4 -56 -19 -85 -33 -41 -20 -72 -27 -139 -30 -73 -3
-97 -8 -160 -39 -142 -67 -281 -199 -395 -373 -146 -225 -215 -439 -255 -790
-11 -93 -26 -209 -34 -257 -35 -197 -37 -470 -5 -613 47 -216 159 -398 288
-468 60 -33 151 -57 214 -57 26 0 48 -2 48 -4 0 -2 -26 -62 -58 -132 -32 -71
-63 -141 -70 -156 -17 -41 -253 -151 -517 -241 -358 -122 -383 -134 -479 -237
-61 -67 -97 -133 -126 -235 -34 -118 -22 -115 39 10 32 66 76 142 99 169 51
62 143 126 230 161 71 29 503 185 512 185 3 0 3 -30 2 -66 -7 -130 20 -146
251 -152 l167 -4 31 -59 c21 -39 38 -59 50 -59 10 0 46 24 80 52 97 83 110 92
117 81 80 -125 197 -293 203 -291 4 2 53 66 110 143 56 77 105 144 109 149 5
4 45 -24 91 -63 45 -40 89 -70 98 -69 8 2 29 28 46 58 l31 55 150 5 c120 4
156 9 177 23 47 30 60 61 55 127 -3 41 -1 59 6 56 85 -34 409 -177 466 -204
120 -59 199 -145 284 -310 38 -73 71 -131 73 -128 10 9 -50 184 -85 246 -47
85 -140 176 -227 221 -39 21 -165 76 -282 123 -229 92 -461 209 -470 235 -3 9
-26 63 -50 121 -25 58 -47 110 -50 117 -3 8 22 11 94 11 147 -1 238 27 320 97
56 48 104 141 108 213 2 31 2 47 -1 34 -3 -12 -16 -30 -30 -38 -22 -15 -26
-15 -50 1 -47 31 -69 97 -69 210 0 89 5 116 42 240 60 198 67 248 66 430 -1
275 -37 477 -135 769 -129 384 -280 586 -530 712 -112 56 -255 78 -355 54z
m275 -86 c132 -44 230 -114 324 -233 88 -110 134 -210 179 -389 22 -85 45
-164 50 -175 7 -12 7 -17 1 -13 -20 12 -64 99 -103 202 -71 190 -112 253 -216
337 -143 115 -272 169 -408 170 -94 1 -155 -22 -198 -72 -33 -40 -41 -69 -34
-128 3 -28 1 -40 -4 -32 -14 22 -10 117 5 147 18 35 72 85 112 106 139 69 329
21 508 -130 88 -74 75 -41 -15 40 -192 173 -439 193 -600 50 l-43 -39 26 45
c74 128 240 173 416 114z m-437 -82 c-97 -97 -105 -168 -25 -242 26 -24 51
-39 60 -36 8 3 14 1 14 -4 0 -33 -100 31 -125 79 -29 57 -15 125 41 190 22 26
79 71 91 71 1 0 -25 -26 -56 -58z m-48 19 c-12 -10 -41 -21 -64 -25 -65 -10
-178 -67 -245 -124 -137 -113 -266 -333 -344 -582 -23 -74 -53 -166 -66 -205
l-24 -70 6 50 c24 211 112 455 229 635 69 106 193 227 281 273 78 40 159 66
214 66 l35 0 -22 -18z m522 -145 c183 -50 308 -170 383 -370 18 -48 31 -90 29
-92 -2 -2 -39 46 -83 108 -145 205 -265 299 -439 343 -150 38 -265 -3 -265
-94 0 -24 10 -36 50 -66 44 -32 62 -39 128 -46 101 -11 130 -18 172 -39 59
-31 116 -99 188 -227 38 -67 73 -119 77 -115 5 4 5 1 1 -6 -4 -6 6 -49 23 -95
17 -45 34 -101 39 -124 l9 -41 -28 10 c-16 5 -29 13 -29 17 0 4 -16 26 -36 50
-49 57 -100 81 -171 81 -57 0 -195 -30 -232 -50 -27 -14 -36 -49 -19 -67 13
-12 23 -11 79 10 35 13 95 32 133 41 87 22 147 10 203 -41 34 -31 36 -34 13
-29 -14 3 -63 9 -110 12 -125 9 -216 -8 -324 -61 -121 -60 -156 -60 -273 -1
-49 25 -116 50 -151 57 -61 11 -206 8 -277 -7 l-30 -7 35 37 c64 67 130 69
316 6 48 -17 91 -30 96 -30 16 0 29 40 18 59 -28 52 -296 95 -366 58 -36 -18
-99 -86 -108 -115 -7 -22 -56 -37 -56 -17 0 43 38 218 67 310 42 133 68 180
129 234 74 65 142 81 336 81 l160 0 -36 40 c-29 32 -36 48 -36 80 0 49 37 94
95 116 50 18 204 13 290 -10z m-589 5 c-3 -4 -24 -11 -47 -15 -135 -22 -261
-127 -357 -300 -18 -33 -30 -52 -26 -41 4 11 7 28 8 37 0 9 4 14 8 12 4 -3 9
0 9 5 1 6 2 15 3 20 3 24 91 143 129 176 71 62 179 109 260 114 10 1 16 -3 13
-8z m607 -114 c105 -48 181 -144 269 -340 84 -187 112 -232 210 -329 48 -48
97 -105 108 -127 l20 -40 -57 52 c-176 159 -216 215 -294 409 -29 73 -68 159
-86 190 -67 115 -170 190 -287 209 l-51 8 58 -4 c32 -2 80 -14 110 -28z m-686
7 c-3 -3 -12 -4 -19 -1 -8 3 -5 6 6 6 11 1 17 -2 13 -5z m112 -48 c22 -12 16
-14 -65 -18 -161 -9 -263 -71 -345 -209 -46 -77 -61 -91 -28 -26 65 127 149
211 251 247 62 22 152 25 187 6z m-479 -521 c-12 -20 -50 -71 -84 -114 -34
-43 -72 -91 -85 -107 -19 -24 -19 -21 5 21 28 51 176 245 183 239 2 -1 -7 -19
-19 -39z m1310 0 c0 -5 -5 -3 -10 5 -5 8 -10 20 -10 25 0 6 5 3 10 -5 5 -8 10
-19 10 -25z m254 -264 c74 -94 136 -269 136 -386 0 -144 -37 -279 -139 -509
-34 -77 -67 -162 -73 -189 -10 -48 -7 -127 6 -172 4 -11 -1 -4 -10 15 -30 64
-15 163 51 335 136 357 164 490 134 637 -16 79 -73 190 -132 259 -61 71 -124
155 -139 184 -11 21 117 -114 166 -174z m-1099 29 c33 -13 73 -36 89 -52 27
-27 28 -33 24 -93 -11 -132 -103 -269 -200 -295 -55 -16 -154 -8 -203 15 -77
37 -130 162 -123 296 3 70 6 82 30 106 56 56 263 68 383 23z m788 7 c18 -8 44
-27 56 -43 21 -27 23 -37 19 -124 -9 -204 -102 -300 -279 -288 -119 9 -187 70
-229 206 -45 144 -20 204 97 240 37 11 79 23 93 26 45 9 208 -3 243 -17z
m-1223 -67 c0 -5 -14 -10 -31 -10 -17 0 -28 4 -24 10 3 6 17 10 31 10 13 0 24
-4 24 -10z m1380 0 c0 -5 -11 -10 -25 -10 -14 0 -25 5 -25 10 0 6 11 10 25 10
14 0 25 -4 25 -10z m-654 -151 c39 -107 57 -141 101 -190 62 -68 102 -84 218
-84 117 0 159 16 220 87 l37 43 -6 -65 c-13 -113 -72 -384 -95 -429 -13 -24
-41 -63 -64 -88 -55 -60 -216 -174 -303 -215 -64 -30 -77 -33 -169 -33 -91 0
-106 3 -165 31 -152 73 -331 228 -374 323 -24 54 -78 296 -92 411 l-6 55 26
-36 c42 -60 103 -84 216 -84 108 0 149 15 205 72 41 42 98 149 120 226 12 42
23 61 38 66 42 16 60 -2 93 -90z m-798 71 c11 -12 28 -53 39 -93 22 -78 83
-354 83 -374 0 -21 -37 -35 -60 -23 -33 18 -43 46 -26 79 9 16 21 32 28 35 7
3 0 4 -15 2 -27 -3 -31 1 -77 95 -65 133 -78 240 -33 284 20 20 39 19 61 -5z
m1524 -17 c40 -46 28 -145 -33 -282 -26 -58 -36 -71 -55 -71 -22 0 -22 -1 -7
-30 26 -54 -3 -102 -51 -84 -14 5 -16 15 -11 48 3 22 13 86 21 141 31 208 62
295 103 295 10 0 25 -8 33 -17z m-1736 -119 c-7 -95 8 -330 29 -440 26 -139
97 -286 190 -396 21 -23 -10 5 -68 63 -79 80 -113 123 -136 172 -37 78 -67
204 -75 312 l-5 80 21 -63 c11 -35 22 -62 23 -60 2 2 -1 39 -6 83 -5 44 -7
109 -4 145 8 87 26 190 33 190 2 0 2 -39 -2 -86z m208 -426 c18 -51 36 -102
41 -113 7 -20 7 -20 -8 0 -28 37 -76 194 -81 263 l-5 67 10 -62 c5 -34 24
-104 43 -155z m1503 100 c-2 -13 -4 -5 -4 17 -1 22 1 32 4 23 2 -10 2 -28 0
-40z m-1574 -192 c55 -81 164 -298 173 -341 4 -21 -7 -8 -33 40 -21 39 -63
102 -94 140 -68 84 -101 148 -123 236 -23 92 -20 114 7 49 13 -30 44 -86 70
-124z m1564 75 c-4 -33 -29 -121 -57 -195 -60 -162 -76 -250 -61 -332 14 -76
6 -82 -9 -8 -17 80 -7 159 36 278 54 151 84 255 84 287 0 16 3 29 6 29 4 0 4
-27 1 -59z m-1711 -231 c41 -83 61 -109 153 -201 58 -58 134 -123 169 -144 34
-21 61 -40 59 -41 -8 -8 -185 70 -235 103 -123 82 -212 270 -227 480 l-5 78
19 -90 c13 -56 38 -126 67 -185z m1750 84 c-13 -55 -38 -135 -54 -179 -28 -76
-30 -78 -38 -50 -8 32 0 59 72 236 21 53 40 95 42 94 2 -2 -8 -47 -22 -101z
m-1331 -287 l5 -52 -14 60 c-7 33 -16 74 -20 90 -5 23 -3 21 9 -8 8 -21 17
-62 20 -90z m912 -70 c0 -84 6 -189 13 -232 l12 -79 -83 -81 c-46 -44 -114
-102 -151 -129 -66 -46 -70 -48 -142 -48 -73 -1 -75 -1 -142 48 -38 26 -109
87 -157 134 l-88 85 11 135 c6 75 10 175 8 222 -3 79 -1 86 13 75 158 -118
241 -152 360 -145 90 5 160 35 274 118 38 27 70 50 70 50 0 0 1 -69 2 -153z
m320 51 c-2 -13 -4 -5 -4 17 -1 22 1 32 4 23 2 -10 2 -28 0 -40z m348 -118
c-67 -70 -163 -90 -212 -44 l-28 26 29 -21 c16 -12 44 -21 63 -21 38 0 119 38
147 69 11 12 21 21 24 21 3 0 -7 -14 -23 -30z m-1425 -113 c0 -8 -9 -22 -20
-32 -22 -20 -26 -55 -8 -88 30 -58 188 -206 282 -264 22 -14 43 -27 45 -29 2
-1 -14 -18 -34 -36 -21 -18 -83 -100 -138 -183 -55 -82 -103 -154 -107 -158
-4 -5 -27 22 -52 60 -52 79 -173 298 -182 329 -4 14 9 58 40 130 115 266 109
255 139 272 27 15 35 15 35 -1z m841 3 c39 -21 184 -355 176 -406 -7 -39 -169
-378 -187 -389 -19 -12 -130 108 -219 238 -41 60 -83 115 -95 122 -11 8 -18
16 -15 18 2 2 37 26 78 53 129 85 281 242 281 290 0 7 -11 26 -25 42 -35 42
-33 52 6 32z m-364 -462 c30 -34 73 -114 73 -136 0 -11 -27 -75 -60 -142 -55
-111 -62 -121 -74 -104 -7 10 -45 76 -85 147 l-71 127 19 38 c10 20 30 49 44
65 22 23 34 27 80 27 43 0 57 -4 74 -22z"/>
<path d="M2085 3504 c-40 -21 -65 -44 -65 -61 0 -9 12 -5 36 14 54 41 142 45
213 9 l52 -27 -22 30 c-12 17 -36 35 -52 41 -44 15 -128 12 -162 -6z"/>
<path d="M2087 3446 c-21 -8 -46 -21 -55 -30 -10 -8 -28 -19 -40 -23 -21 -8
-20 -10 26 -44 93 -70 161 -75 278 -20 l67 32 -33 34 c-18 19 -48 41 -66 50
-39 18 -126 19 -177 1z m138 -26 c3 -5 -3 -10 -14 -10 -12 0 -21 5 -21 10 0 6
6 10 14 10 8 0 18 -4 21 -10z m-115 -30 c0 -11 9 -29 20 -40 18 -18 18 -20 3
-20 -10 0 -34 10 -53 21 l-34 21 23 19 c30 24 41 24 41 -1z m203 -18 c17 -19
17 -20 -11 -25 -17 -3 -42 -9 -58 -13 l-28 -7 22 28 c12 15 22 34 22 42 0 17
26 5 53 -25z"/>
<path d="M2748 3491 c-41 -26 -67 -51 -54 -51 3 0 26 11 51 25 85 45 152 42
229 -10 41 -28 51 -12 14 22 -38 34 -64 43 -130 43 -54 0 -72 -5 -110 -29z"/>
<path d="M2762 3450 c-32 -14 -89 -58 -96 -75 -3 -9 16 -23 59 -44 77 -36 139
-46 189 -33 45 13 142 84 124 92 -7 3 -33 19 -57 35 -39 26 -55 30 -120 32
-42 2 -86 -2 -99 -7z m103 -30 c3 -5 -3 -10 -14 -10 -12 0 -21 5 -21 10 0 6 6
10 14 10 8 0 18 -4 21 -10z m-78 -72 c21 -23 3 -23 -51 1 l-39 17 28 23 29 22
9 -23 c4 -12 15 -31 24 -40z m178 32 c6 -10 -51 -50 -73 -50 -9 0 -7 8 7 26
12 15 21 33 21 41 0 10 4 11 19 3 11 -5 23 -15 26 -20z"/>
<path d="M2375 3036 c-13 -13 -27 -36 -31 -50 -9 -36 19 -76 52 -76 13 0 42
-9 64 -20 47 -24 69 -25 96 -5 10 8 34 15 52 15 48 0 82 26 82 62 0 35 -16 68
-32 68 -9 0 -9 -3 0 -12 7 -7 12 -27 12 -44 0 -34 -14 -52 -25 -34 -11 18 -53
11 -83 -15 -37 -31 -48 -31 -94 0 -21 14 -51 28 -68 31 -37 8 -40 38 -9 78 26
33 16 34 -16 2z"/>
<path d="M2183 2805 c-20 -20 -33 -39 -29 -42 3 -3 7 -4 9 -2 1 2 18 21 36 42
44 47 31 49 -16 2z"/>
<path d="M2800 2837 c0 -2 15 -16 33 -33 l32 -29 -29 33 c-28 30 -36 37 -36
29z"/>
<path d="M2345 2775 c-39 -16 -70 -22 -89 -19 -21 5 -27 3 -23 -7 2 -8 9 -13
15 -12 5 1 27 -18 47 -42 54 -66 112 -97 196 -103 92 -6 145 14 226 90 64 60
78 67 86 46 3 -7 6 -2 6 10 1 22 -2 23 -36 17 -29 -4 -54 1 -103 21 -50 20
-73 25 -105 19 -44 -7 -48 -7 -115 0 -33 3 -61 -2 -105 -20z m285 -74 c0 -13
-41 -41 -60 -41 -8 1 0 7 19 16 48 20 33 27 -19 9 -52 -18 -73 -19 -125 -2
l-40 12 85 6 c47 3 97 6 113 7 15 1 27 -2 27 -7z m-173 -37 c-3 -3 -12 -4 -19
-1 -8 3 -5 6 6 6 11 1 17 -2 13 -5z m76 -11 c-7 -2 -21 -2 -30 0 -10 3 -4 5
12 5 17 0 24 -2 18 -5z"/>
<path d="M1721 3288 c0 -24 4 -52 9 -63 7 -17 9 -15 9 12 1 47 14 47 49 1 18
-24 32 -35 32 -26 0 24 -63 112 -82 116 -15 3 -18 -4 -17 -40z"/>
<path d="M3263 3308 c-17 -22 -53 -96 -53 -110 1 -7 14 2 30 21 32 38 34 38
49 1 8 -20 10 -14 8 34 -2 59 -15 78 -34 54z"/>
<path d="M3226 2464 c-4 -20 -5 -38 -3 -40 3 -3 8 11 11 32 4 20 5 38 3 40 -3
3 -8 -11 -11 -32z"/>
<path d="M1121 1274 c0 -11 3 -14 6 -6 3 7 2 16 -1 19 -3 4 -6 -2 -5 -13z"/>
<path d="M3866 1117 c-49 -212 -51 -220 -31 -178 28 61 84 325 72 337 -2 2
-20 -69 -41 -159z"/>
<path d="M1130 1238 c0 -9 7 -51 15 -94 13 -67 22 -103 51 -193 2 -8 7 -11 10
-8 5 5 -64 297 -72 306 -2 2 -4 -3 -4 -11z"/>
<path d="M2328 958 c7 -28 20 -31 20 -4 0 12 -6 23 -13 23 -7 0 -10 -8 -7 -19z"/>
<path d="M2395 972 c-27 -19 -45 -61 -36 -84 l10 -23 0 25 c1 14 10 40 21 58
21 34 21 36 5 24z"/>
<path d="M2451 960 c13 -11 20 -25 17 -41 -4 -33 -41 -37 -62 -7 -11 15 -16
18 -16 7 0 -23 21 -39 52 -39 32 0 52 30 42 63 -10 33 9 10 22 -26 15 -44 38
-56 63 -33 14 13 21 31 21 58 0 52 -18 49 -22 -4 -4 -60 -33 -65 -55 -9 -9 23
-19 41 -22 42 -3 0 -19 2 -34 3 -28 2 -28 2 -6 -14z"/>
<path d="M2606 959 c-11 -37 -4 -70 16 -82 26 -17 48 9 48 54 0 40 22 55 34
24 3 -8 1 -15 -4 -15 -6 0 -9 -17 -9 -37 1 -27 3 -31 6 -14 l5 25 20 -25 c17
-21 18 -21 9 -2 -6 12 -16 25 -22 28 -7 5 -6 11 2 21 17 20 3 44 -26 44 -19 0
-25 -5 -25 -22 -1 -77 -37 -94 -42 -20 -3 41 -5 44 -12 21z"/>
<path d="M2173 883 c15 -2 37 -2 50 0 12 2 0 4 -28 4 -27 0 -38 -2 -22 -4z"/>
<path d="M2863 883 c15 -2 37 -2 50 0 12 2 0 4 -28 4 -27 0 -38 -2 -22 -4z"/>
<path d="M1875 761 c-26 -11 -51 -40 -60 -69 -12 -42 12 -78 71 -106 58 -28
72 -56 28 -56 -14 0 -35 5 -46 11 -17 9 -24 8 -33 -5 -7 -8 -15 -13 -18 -9 -4
3 -7 -3 -7 -14 0 -25 43 -43 102 -43 47 0 98 43 98 83 0 32 -40 71 -89 85 -42
13 -58 36 -40 58 14 17 49 18 84 2 28 -13 30 -12 39 18 5 16 0 23 -18 32 -36
16 -88 22 -111 13z"/>
<path d="M2334 738 c-85 -79 -54 -237 51 -264 40 -10 98 4 91 22 -3 9 -6 21
-6 29 0 8 -13 12 -40 11 -55 -1 -85 29 -85 88 0 70 49 106 105 76 15 -8 19 -5
25 17 15 61 -82 75 -141 21z"/>
<path d="M2850 757 c-35 -18 -53 -59 -42 -99 8 -30 24 -46 88 -84 16 -9 17
-14 6 -26 -12 -15 -19 -15 -169 -9 -28 1 -33 5 -33 26 0 23 4 25 45 25 42 0
45 2 45 28 0 26 -2 27 -45 24 -43 -4 -45 -3 -45 22 0 24 3 26 45 26 32 0 45 4
45 14 0 8 3 21 6 30 5 14 -4 16 -65 16 l-71 0 0 -135 0 -135 64 0 c59 0 65 2
69 23 4 21 4 21 6 1 2 -35 79 -46 130 -19 66 34 56 117 -18 154 -38 20 -56 44
-45 62 7 12 41 11 64 -1 17 -9 21 -6 26 16 4 14 3 29 -2 34 -17 15 -79 20
-104 7z"/>
<path d="M3031 757 c-29 -17 -50 -53 -51 -89 0 -29 37 -66 89 -88 63 -26 22
-56 -53 -39 -14 3 -24 -4 -33 -21 -16 -33 3 -44 78 -45 64 0 94 18 104 65 9
40 -11 67 -72 96 -55 25 -64 42 -38 64 12 10 24 11 52 2 31 -10 38 -9 49 6 18
23 17 30 -5 41 -33 18 -95 22 -120 8z"/>
<path d="M2030 665 c0 -60 5 -108 14 -130 31 -73 143 -88 198 -26 27 30 28 36
28 135 0 96 -2 105 -20 111 -34 11 -40 -3 -40 -99 0 -77 -3 -96 -18 -109 -25
-23 -58 -21 -82 3 -17 17 -20 33 -20 115 l0 95 -30 0 -30 0 0 -95z"/>
<path d="M2541 747 c-65 -33 -93 -149 -51 -215 22 -36 72 -62 119 -62 31 0 41
14 41 56 0 22 -2 23 -21 14 -16 -9 -28 -9 -50 1 -89 36 -53 169 46 169 20 0
25 5 25 25 0 23 -4 25 -42 25 -24 0 -54 -6 -67 -13z"/>
<path d="M1725 600 c-14 -22 12 -33 36 -16 13 9 18 16 12 16 -6 0 -18 3 -26 6
-8 3 -18 0 -22 -6z"/>
<path d="M3228 588 c8 -8 17 -8 34 0 22 10 21 11 -11 11 -27 1 -32 -2 -23 -11z"/>
</g>
</svg>